<svg width="363.99999999999994" height="357" xmlns="http://www.w3.org/2000/svg">
 <title>resize</title>

 <g>
  <title>Layer 1</title>
  <path id="svg_18" d="m56.34616,32.5c0,-13.58447 11.41553,-25 25,-25l250,0c13.58447,0 25,11.41553 25,25l0,250c0,13.58447 -11.41553,24.61538 -25,24.61538c-51.80826,0.49879 18.34369,0.08411 -25.00304,0.19829c-5.0441,-290.82923 55.24369,-232.86337 -250.52596,-238.76445l0.529,-36.04922z" stroke-width="15" stroke="#3e5b7c" fill="none"/>
  <path id="svg_11" d="m7.5,94.27886c0,-13.58447 11.41553,-25 25,-25l228.91667,-1.21667c34.2678,3.3 42.65,19.81552 45.53333,43.83333l-0.45,212.38333c0,13.58447 -11.41553,25 -25,25l-249,0c-13.58447,0 -25,-11.41553 -25,-25l0,-230z" stroke-width="15" stroke="#3e5b7c" fill="none"/>
 </g>
</svg>